<svg xmlns="http://www.w3.org/2000/svg" height="644pt" version="1.1" viewBox="-29 0 644 644.215" width="644pt">
<g id="surface1">
<path d="M 158.585938 0 L 468.460938 0 C 500.796875 0 527.007812 26.210938 527.007812 58.546875 L 527.007812 585.453125 C 527.007812 617.789062 500.796875 644 468.460938 644 L 58.644531 644 C 26.308594 644 0.0976562 617.789062 0.0976562 585.453125 L 0.0976562 158.488281 C 0.0976562 150.726562 3.183594 143.28125 8.671875 137.789062 L 137.886719 8.574219 C 143.378906 3.082031 150.824219 0 158.585938 0 Z M 158.585938 0 " style=" stroke:none;fill-rule:nonzero;fill:rgb(80%,83.137255%,100%);fill-opacity:1;" />
<path d="M 93.613281 479.410156 L 226.910156 635.15625 C 231.582031 640.757812 238.5 644 245.792969 644 L 385.292969 644 C 410.382812 644 419.351562 610.828125 397.679688 598.183594 L 124.882812 442.441406 C 115.238281 436.8125 103.011719 438.394531 95.117188 446.292969 C 86.125 455.28125 85.476562 469.644531 93.613281 479.410156 Z M 93.613281 479.410156 " style=" stroke:none;fill-rule:nonzero;fill:rgb(72.156863%,76.078431%,100%);fill-opacity:1;" />
<path d="M 94.964844 480.160156 L 128.460938 519.566406 C 140.019531 530.058594 157.898438 529.195312 168.390625 517.636719 C 170.125 515.726562 171.589844 513.585938 172.742188 511.277344 C 179.707031 497.347656 174.09375 480.410156 160.1875 473.394531 L 122.730469 441.628906 C 113.46875 437 102.285156 438.816406 94.960938 446.136719 C 85.148438 455.097656 83.773438 469.558594 92.730469 479.371094 C 93.222656 479.910156 93.738281 480.425781 94.964844 480.160156 Z M 94.964844 480.160156 " style=" stroke:none;fill-rule:nonzero;fill:rgb(64.313725%,69.411765%,100%);fill-opacity:1;" />
<path d="M 73.28125 175.636719 L 190.371094 175.636719 C 214.621094 175.636719 234.28125 195.292969 234.28125 219.546875 C 234.28125 243.796875 214.621094 263.453125 190.371094 263.453125 L 73.28125 263.453125 C 49.03125 263.453125 29.371094 243.796875 29.371094 219.546875 C 29.371094 195.292969 49.03125 175.636719 73.28125 175.636719 Z M 73.28125 175.636719 " style=" stroke:none;fill-rule:nonzero;fill:rgb(64.313725%,69.411765%,100%);fill-opacity:1;" />
<path d="M 205.007812 41.398438 L 205.007812 163.511719 C 205.007812 186.375 186.472656 204.910156 163.609375 204.910156 L 41.496094 204.910156 C 18.632812 204.910156 0.0976562 186.375 0.0976562 163.511719 C 0.0976562 152.53125 4.460938 142.003906 12.222656 134.238281 L 134.335938 12.125 C 142.101562 4.363281 152.628906 0 163.609375 0 C 186.472656 0 205.007812 18.535156 205.007812 41.398438 Z M 205.007812 41.398438 " style=" stroke:none;fill-rule:nonzero;fill:rgb(87.45098%,89.803922%,100%);fill-opacity:1;" />
<path d="M 263.554688 263.453125 L 122.441406 431.1875 C 114.9375 440.191406 115.539062 453.4375 123.828125 461.726562 C 132.117188 470.015625 145.359375 470.613281 154.367188 463.109375 L 322.097656 322 Z M 263.554688 263.453125 " style=" stroke:none;fill-rule:nonzero;fill:rgb(87.45098%,89.803922%,100%);fill-opacity:1;" />
<path d="M 263.554688 351.273438 C 263.554688 367.441406 250.449219 380.546875 234.28125 380.546875 C 218.113281 380.546875 205.007812 367.441406 205.007812 351.273438 C 205.007812 335.105469 218.113281 322 234.28125 322 C 250.449219 322 263.554688 335.105469 263.554688 351.273438 Z M 263.554688 351.273438 " style=" stroke:none;fill-rule:nonzero;fill:rgb(72.156863%,76.078431%,100%);fill-opacity:1;" />
<path d="M 396.386719 189.164062 C 326.753906 119.53125 237.046875 96.347656 196.015625 137.375 C 154.984375 178.40625 178.171875 268.117188 247.800781 337.746094 C 317.433594 407.378906 407.140625 430.5625 448.171875 389.53125 C 489.203125 348.503906 466.015625 258.792969 396.386719 189.164062 Z M 396.386719 189.164062 " style=" stroke:none;fill-rule:nonzero;fill:rgb(7.843137%,63.137255%,25.882353%);fill-opacity:1;" />
<path d="M 251.058594 117.089844 L 250.101562 117.089844 L 250.042969 117.09375 L 249.660156 117.09375 L 249.597656 117.097656 L 249.410156 117.097656 L 249.339844 117.101562 L 249.15625 117.101562 L 249.089844 117.105469 L 248.902344 117.105469 L 248.835938 117.109375 L 248.652344 117.109375 L 248.582031 117.113281 L 248.457031 117.113281 L 248.402344 117.117188 L 248.277344 117.117188 L 248.203125 117.121094 L 248.152344 117.121094 L 248.078125 117.125 L 247.949219 117.125 L 247.902344 117.128906 L 247.824219 117.128906 L 247.777344 117.132812 L 247.65625 117.132812 L 247.574219 117.136719 L 247.53125 117.136719 L 247.445312 117.140625 L 247.414062 117.140625 L 247.320312 117.144531 L 247.289062 117.144531 L 247.195312 117.148438 L 247.164062 117.148438 L 247.074219 117.152344 L 247.050781 117.152344 C 246.820312 117.164062 246.589844 117.171875 246.359375 117.183594 L 246.328125 117.183594 L 246.238281 117.1875 L 246.207031 117.1875 L 246.113281 117.191406 L 246.082031 117.195312 L 245.984375 117.199219 L 245.960938 117.199219 L 245.867188 117.203125 L 245.832031 117.203125 L 245.746094 117.207031 L 245.707031 117.210938 L 245.625 117.214844 L 245.582031 117.21875 L 245.5 117.222656 L 245.460938 117.222656 L 245.375 117.226562 L 245.335938 117.230469 L 245.253906 117.234375 L 245.210938 117.234375 L 245.132812 117.238281 L 245.085938 117.242188 L 245.003906 117.246094 L 244.964844 117.25 L 244.878906 117.253906 L 244.839844 117.257812 L 244.757812 117.261719 L 244.714844 117.265625 L 244.636719 117.269531 L 244.589844 117.273438 L 244.511719 117.277344 L 244.472656 117.277344 L 244.386719 117.285156 L 244.347656 117.285156 L 244.265625 117.289062 L 244.222656 117.292969 L 244.144531 117.300781 L 244.097656 117.300781 L 244.019531 117.308594 L 243.976562 117.308594 L 243.894531 117.316406 L 243.855469 117.316406 L 243.769531 117.324219 L 243.730469 117.328125 L 243.648438 117.332031 L 243.605469 117.335938 L 243.527344 117.34375 L 243.484375 117.34375 L 243.402344 117.351562 L 243.359375 117.355469 L 243.28125 117.359375 L 243.234375 117.363281 L 243.15625 117.371094 L 243.113281 117.375 L 243.035156 117.378906 L 243.003906 117.382812 C 242.738281 117.402344 242.472656 117.421875 242.207031 117.445312 L 242.179688 117.449219 L 242.089844 117.457031 L 242.058594 117.457031 L 241.96875 117.464844 L 241.9375 117.46875 L 241.851562 117.476562 L 241.8125 117.480469 L 241.738281 117.488281 L 241.691406 117.492188 L 241.621094 117.496094 L 241.566406 117.503906 L 241.5 117.507812 L 241.445312 117.515625 L 241.378906 117.519531 L 241.320312 117.523438 L 241.257812 117.53125 L 241.199219 117.535156 L 241.136719 117.542969 L 241.078125 117.546875 L 241.011719 117.554688 L 240.957031 117.558594 L 240.886719 117.566406 L 240.835938 117.570312 L 240.769531 117.578125 L 240.714844 117.582031 L 240.648438 117.589844 L 240.59375 117.597656 L 240.527344 117.601562 L 240.472656 117.609375 L 240.40625 117.613281 L 240.347656 117.621094 L 240.289062 117.625 L 240.222656 117.632812 L 240.164062 117.640625 L 240.105469 117.644531 L 240.042969 117.652344 L 239.988281 117.660156 L 239.917969 117.667969 L 239.863281 117.671875 L 239.800781 117.679688 L 239.742188 117.6875 L 239.679688 117.691406 L 239.621094 117.699219 L 239.558594 117.707031 L 239.496094 117.710938 L 239.4375 117.71875 L 239.371094 117.726562 L 239.316406 117.734375 L 239.253906 117.742188 L 239.195312 117.75 L 239.136719 117.753906 L 239.074219 117.761719 L 239.015625 117.769531 L 238.953125 117.777344 L 238.894531 117.785156 L 238.832031 117.792969 L 238.777344 117.800781 L 238.710938 117.808594 L 238.65625 117.8125 L 238.59375 117.820312 L 238.535156 117.828125 L 238.433594 117.839844 L 238.230469 117.867188 L 238.191406 117.871094 L 238.109375 117.882812 L 238.070312 117.886719 L 237.992188 117.898438 L 237.9375 117.902344 L 237.867188 117.914062 L 237.820312 117.917969 L 237.75 117.925781 L 237.699219 117.933594 L 237.625 117.945312 L 237.578125 117.960938 L 237.503906 117.96875 L 237.457031 117.976562 L 237.382812 117.988281 L 237.335938 117.992188 L 237.261719 118.003906 L 237.214844 118.007812 L 237.144531 118.019531 L 237.09375 118.027344 L 237.027344 118.035156 L 236.972656 118.042969 L 236.902344 118.050781 L 236.785156 118.070312 L 236.734375 118.078125 L 236.664062 118.085938 L 236.613281 118.09375 L 236.542969 118.105469 L 236.496094 118.109375 L 236.417969 118.121094 L 236.378906 118.128906 L 236.304688 118.140625 L 236.257812 118.148438 L 236.179688 118.15625 L 236.140625 118.164062 L 236.0625 118.175781 L 236.019531 118.183594 L 235.941406 118.195312 L 235.898438 118.199219 L 235.820312 118.210938 L 235.78125 118.21875 L 235.699219 118.230469 L 235.664062 118.238281 L 235.582031 118.25 L 235.546875 118.257812 L 235.460938 118.269531 L 235.425781 118.273438 L 235.34375 118.289062 L 235.304688 118.292969 L 235.222656 118.304688 L 235.1875 118.3125 L 235.105469 118.324219 L 235.066406 118.332031 L 234.984375 118.34375 L 234.949219 118.351562 L 234.832031 118.371094 L 234.714844 118.386719 C 234.355469 118.449219 233.996094 118.507812 233.640625 118.574219 L 233.632812 118.574219 L 233.523438 118.59375 L 233.507812 118.597656 L 233.40625 118.613281 L 233.269531 118.640625 L 233.171875 118.65625 L 233.144531 118.660156 L 233.054688 118.679688 L 232.9375 118.699219 L 232.910156 118.703125 L 232.816406 118.722656 L 232.796875 118.726562 L 232.699219 118.742188 L 232.675781 118.746094 L 232.582031 118.765625 L 232.464844 118.789062 L 232.441406 118.792969 L 232.347656 118.8125 L 232.324219 118.816406 L 232.230469 118.835938 L 232.207031 118.839844 L 232.109375 118.855469 L 232.089844 118.859375 L 231.992188 118.882812 L 231.972656 118.886719 L 231.871094 118.90625 L 231.859375 118.910156 L 231.753906 118.929688 L 231.742188 118.933594 L 231.632812 118.953125 L 231.625 118.957031 L 231.515625 118.976562 L 231.507812 118.976562 L 231.394531 119 L 231.390625 119.003906 L 231.28125 119.023438 L 231.273438 119.027344 C 230.335938 119.21875 229.402344 119.429688 228.484375 119.652344 L 228.480469 119.652344 C 220.039062 121.632812 212.035156 125.140625 204.863281 130.011719 L 204.859375 130.011719 L 204.769531 130.074219 L 204.765625 130.074219 L 204.675781 130.136719 L 204.667969 130.140625 L 204.585938 130.199219 L 204.574219 130.207031 L 204.496094 130.261719 L 204.484375 130.273438 L 204.40625 130.328125 L 204.390625 130.335938 L 204.316406 130.390625 L 204.296875 130.402344 L 204.222656 130.453125 L 204.203125 130.46875 C 204.179688 130.484375 204.15625 130.5 204.132812 130.519531 L 204.113281 130.53125 L 204.039062 130.585938 L 204.023438 130.59375 L 203.949219 130.648438 L 203.933594 130.660156 L 203.859375 130.714844 L 203.839844 130.726562 L 203.769531 130.78125 L 203.75 130.792969 C 203.726562 130.808594 203.703125 130.828125 203.679688 130.84375 L 203.660156 130.855469 L 203.585938 130.910156 L 203.570312 130.921875 L 203.496094 130.976562 L 203.480469 130.988281 C 203.453125 131.007812 203.429688 131.023438 203.40625 131.042969 L 203.390625 131.054688 L 203.308594 131.113281 L 203.300781 131.121094 L 203.222656 131.179688 L 203.207031 131.1875 C 203.183594 131.207031 203.15625 131.226562 203.128906 131.25 L 203.121094 131.253906 L 203.039062 131.3125 L 203.03125 131.320312 L 202.945312 131.386719 L 202.941406 131.386719 C 202.910156 131.410156 202.882812 131.429688 202.855469 131.449219 L 202.851562 131.453125 C 202.667969 131.589844 202.492188 131.722656 202.3125 131.859375 L 202.308594 131.863281 C 202.277344 131.886719 202.253906 131.90625 202.222656 131.929688 L 202.214844 131.9375 L 202.136719 131.996094 L 202.117188 132.011719 L 202.046875 132.066406 L 202.023438 132.082031 L 201.960938 132.132812 L 201.933594 132.152344 L 201.871094 132.199219 L 201.84375 132.222656 L 201.785156 132.265625 L 201.75 132.292969 L 201.699219 132.335938 L 201.660156 132.363281 L 201.609375 132.402344 L 201.574219 132.433594 L 201.523438 132.472656 L 201.484375 132.503906 L 201.4375 132.539062 L 201.308594 132.644531 L 201.261719 132.679688 L 201.222656 132.710938 L 201.175781 132.75 L 201.136719 132.78125 L 201.089844 132.816406 L 200.875 132.992188 L 200.828125 133.027344 L 200.785156 133.0625 L 200.746094 133.09375 L 200.699219 133.132812 L 200.660156 133.167969 L 200.613281 133.207031 L 200.574219 133.238281 L 200.527344 133.277344 L 200.488281 133.308594 L 200.441406 133.347656 L 200.40625 133.378906 L 200.355469 133.417969 L 200.320312 133.449219 L 200.269531 133.492188 L 200.234375 133.519531 L 200.183594 133.5625 L 200.152344 133.589844 L 200.097656 133.632812 L 200.015625 133.703125 L 199.984375 133.726562 L 199.902344 133.796875 L 199.84375 133.847656 L 199.820312 133.867188 L 199.757812 133.921875 C 199.59375 134.0625 199.425781 134.203125 199.261719 134.347656 L 199.257812 134.347656 L 199.1875 134.410156 L 199.175781 134.421875 L 199.101562 134.484375 L 199.089844 134.496094 L 199.019531 134.554688 L 199.007812 134.566406 L 198.9375 134.628906 L 198.925781 134.640625 L 198.859375 134.699219 L 198.839844 134.714844 L 198.773438 134.777344 L 198.761719 134.789062 L 198.691406 134.847656 L 198.675781 134.863281 L 198.609375 134.925781 L 198.59375 134.933594 L 198.527344 134.996094 L 198.511719 135.011719 L 198.445312 135.070312 L 198.429688 135.082031 L 198.363281 135.140625 L 198.347656 135.15625 L 198.28125 135.21875 L 198.265625 135.230469 L 198.199219 135.289062 L 198.183594 135.304688 C 198.160156 135.324219 198.136719 135.347656 198.117188 135.367188 L 198.105469 135.375 C 198.082031 135.398438 198.054688 135.421875 198.035156 135.441406 L 198.023438 135.449219 C 198 135.472656 197.976562 135.496094 197.953125 135.515625 L 197.945312 135.523438 C 197.917969 135.546875 197.894531 135.570312 197.871094 135.589844 L 197.859375 135.601562 L 197.789062 135.667969 L 197.78125 135.675781 L 197.707031 135.742188 L 197.703125 135.75 L 197.625 135.820312 C 197.492188 135.945312 197.359375 136.070312 197.226562 136.199219 C 185.492188 147.320312 184.996094 165.847656 196.117188 177.582031 C 207.238281 189.3125 225.769531 189.808594 237.5 178.6875 C 238.984375 177.28125 243.425781 175.636719 251.0625 175.636719 C 267.226562 175.636719 280.332031 162.527344 280.332031 146.359375 C 280.332031 130.195312 267.222656 117.089844 251.054688 117.089844 Z M 251.058594 117.089844 " style=" stroke:none;fill-rule:nonzero;fill:rgb(29.803922%,77.647059%,43.137255%);fill-opacity:1;" />
<path d="M 424.910156 249.339844 C 408.738281 249.359375 395.644531 262.488281 395.664062 278.660156 C 395.667969 282.929688 396.605469 287.140625 398.410156 291.007812 C 413.144531 322.558594 411.132812 343.785156 406.777344 348.136719 C 405.332031 349.582031 400.890625 351.273438 393.136719 351.273438 C 371.53125 351.273438 332.285156 337.804688 292.777344 299.855469 C 281.117188 288.65625 262.585938 289.03125 251.390625 300.691406 C 240.199219 312.339844 240.5625 330.855469 252.203125 342.058594 C 253.289062 343.101562 254.382812 344.136719 255.476562 345.160156 L 255.480469 345.160156 C 255.570312 345.246094 255.660156 345.332031 255.75 345.414062 L 255.761719 345.421875 C 255.804688 345.460938 255.847656 345.503906 255.890625 345.542969 L 255.894531 345.546875 C 255.9375 345.589844 255.980469 345.625 256.023438 345.667969 L 256.039062 345.683594 L 256.164062 345.796875 L 256.175781 345.808594 C 256.21875 345.847656 256.261719 345.886719 256.304688 345.925781 L 256.3125 345.9375 L 256.445312 346.058594 L 256.449219 346.0625 C 256.492188 346.101562 256.53125 346.136719 256.574219 346.179688 L 256.59375 346.195312 L 256.71875 346.3125 L 256.730469 346.320312 L 256.859375 346.441406 L 256.867188 346.449219 C 256.957031 346.53125 257.039062 346.609375 257.128906 346.691406 L 257.144531 346.703125 C 257.515625 347.042969 257.878906 347.378906 258.25 347.714844 L 258.273438 347.734375 C 258.3125 347.769531 258.351562 347.804688 258.390625 347.84375 L 258.398438 347.847656 L 258.527344 347.964844 L 258.554688 347.992188 L 258.664062 348.089844 L 258.699219 348.121094 C 258.730469 348.152344 258.765625 348.179688 258.796875 348.210938 C 258.816406 348.226562 258.832031 348.242188 258.851562 348.261719 C 258.882812 348.289062 258.910156 348.3125 258.9375 348.335938 L 258.988281 348.382812 C 259.015625 348.410156 259.042969 348.433594 259.070312 348.457031 L 259.128906 348.511719 L 259.210938 348.585938 L 259.265625 348.636719 L 259.34375 348.703125 L 259.410156 348.765625 L 259.480469 348.828125 L 259.546875 348.886719 L 259.617188 348.953125 C 259.640625 348.972656 259.660156 348.992188 259.683594 349.011719 L 259.757812 349.078125 L 259.890625 349.195312 L 259.964844 349.261719 L 260.03125 349.320312 L 260.101562 349.382812 C 260.125 349.40625 260.140625 349.421875 260.164062 349.441406 C 260.1875 349.464844 260.214844 349.488281 260.238281 349.507812 L 260.304688 349.566406 L 260.378906 349.632812 L 260.433594 349.683594 C 260.460938 349.707031 260.488281 349.730469 260.515625 349.757812 L 260.574219 349.808594 C 260.601562 349.832031 260.625 349.851562 260.652344 349.878906 L 260.710938 349.929688 C 260.738281 349.953125 260.761719 349.976562 260.789062 350 L 260.851562 350.054688 L 260.929688 350.125 L 260.972656 350.160156 L 261.070312 350.25 L 261.105469 350.28125 L 261.207031 350.371094 L 261.238281 350.398438 L 261.34375 350.492188 L 261.375 350.519531 C 261.410156 350.550781 261.449219 350.585938 261.488281 350.617188 L 261.492188 350.621094 C 298.132812 383.003906 338.835938 403.039062 374.507812 408.378906 L 374.511719 408.378906 C 374.550781 408.382812 374.597656 408.390625 374.636719 408.398438 L 374.648438 408.398438 L 374.773438 408.414062 L 374.777344 408.417969 L 374.902344 408.4375 L 374.910156 408.4375 L 375.035156 408.453125 L 375.042969 408.457031 L 375.167969 408.472656 L 375.175781 408.476562 L 375.300781 408.492188 L 375.304688 408.492188 L 375.429688 408.511719 L 375.4375 408.511719 L 375.5625 408.53125 L 375.566406 408.53125 L 375.695312 408.550781 L 375.699219 408.550781 C 376.402344 408.648438 377.097656 408.742188 377.796875 408.828125 L 377.917969 408.84375 L 377.929688 408.84375 L 378.046875 408.859375 L 378.0625 408.863281 L 378.179688 408.875 L 378.191406 408.878906 L 378.308594 408.890625 L 378.324219 408.894531 L 378.4375 408.90625 L 378.457031 408.910156 L 378.5625 408.921875 L 378.59375 408.925781 L 378.691406 408.9375 L 378.726562 408.941406 L 378.820312 408.953125 L 378.859375 408.957031 L 378.953125 408.96875 L 378.988281 408.972656 L 379.085938 408.984375 L 379.125 408.988281 L 379.21875 409 L 379.253906 409.003906 L 379.351562 409.011719 L 379.386719 409.015625 C 379.421875 409.019531 379.449219 409.027344 379.484375 409.027344 L 379.515625 409.03125 L 379.613281 409.042969 L 379.644531 409.046875 L 379.746094 409.058594 L 379.777344 409.0625 L 379.878906 409.074219 L 379.90625 409.078125 L 380.007812 409.085938 L 380.039062 409.089844 L 380.136719 409.101562 L 380.171875 409.105469 L 380.269531 409.117188 L 380.296875 409.121094 L 380.402344 409.132812 L 380.421875 409.132812 C 380.757812 409.167969 381.09375 409.203125 381.433594 409.234375 L 381.445312 409.238281 L 381.566406 409.25 L 381.574219 409.25 L 381.679688 409.257812 L 381.710938 409.261719 L 381.804688 409.269531 L 381.839844 409.273438 L 381.925781 409.28125 L 381.972656 409.285156 L 382.0625 409.296875 L 382.101562 409.300781 L 382.191406 409.308594 L 382.363281 409.324219 L 382.453125 409.332031 L 382.496094 409.335938 L 382.585938 409.34375 L 382.625 409.347656 L 382.714844 409.355469 L 382.84375 409.367188 L 382.890625 409.371094 L 382.972656 409.378906 L 383.023438 409.382812 L 383.101562 409.386719 L 383.148438 409.390625 L 383.234375 409.398438 L 383.28125 409.402344 L 383.496094 409.421875 L 383.542969 409.425781 L 383.625 409.429688 L 383.671875 409.433594 L 383.757812 409.441406 L 383.804688 409.445312 L 383.886719 409.453125 L 383.9375 409.457031 L 384.015625 409.464844 L 384.070312 409.46875 L 384.148438 409.472656 L 384.199219 409.476562 L 384.277344 409.484375 L 384.324219 409.488281 L 384.40625 409.492188 L 384.449219 409.496094 L 384.539062 409.503906 L 384.582031 409.507812 L 384.667969 409.511719 L 384.703125 409.515625 L 384.800781 409.519531 L 384.8125 409.523438 L 384.929688 409.53125 L 384.9375 409.53125 C 385.09375 409.542969 385.25 409.550781 385.40625 409.5625 L 385.441406 409.566406 L 385.519531 409.570312 L 385.574219 409.574219 L 385.648438 409.578125 L 385.703125 409.582031 L 385.78125 409.585938 L 385.832031 409.589844 L 385.910156 409.59375 L 385.964844 409.597656 L 386.03125 409.601562 L 386.09375 409.605469 L 386.164062 409.609375 L 386.226562 409.617188 L 386.292969 409.621094 L 386.355469 409.625 L 386.421875 409.628906 L 386.484375 409.632812 L 386.550781 409.636719 L 386.613281 409.640625 L 386.683594 409.644531 L 386.742188 409.648438 L 386.8125 409.652344 L 386.871094 409.652344 L 386.941406 409.660156 L 387 409.660156 L 387.132812 409.667969 L 387.195312 409.671875 L 387.261719 409.675781 L 387.324219 409.679688 L 387.390625 409.679688 L 387.453125 409.683594 L 387.519531 409.6875 L 387.582031 409.691406 L 387.652344 409.695312 L 387.710938 409.699219 L 387.78125 409.703125 L 387.839844 409.703125 L 387.910156 409.707031 L 387.96875 409.710938 L 388.042969 409.714844 L 388.097656 409.714844 L 388.171875 409.71875 L 388.226562 409.722656 L 388.296875 409.722656 L 388.355469 409.726562 L 388.425781 409.730469 L 388.488281 409.734375 L 388.558594 409.734375 L 388.613281 409.738281 L 388.6875 409.742188 L 388.742188 409.742188 L 388.816406 409.746094 L 388.871094 409.75 L 388.941406 409.75 L 389 409.753906 L 389.257812 409.761719 L 389.289062 409.761719 L 389.386719 409.765625 L 389.417969 409.765625 L 389.515625 409.769531 L 389.566406 409.773438 L 389.644531 409.773438 L 389.691406 409.777344 L 389.769531 409.777344 L 389.828125 409.78125 L 389.898438 409.78125 L 389.960938 409.785156 L 390.027344 409.785156 L 390.085938 409.789062 L 390.15625 409.789062 L 390.214844 409.792969 L 390.285156 409.792969 L 390.34375 409.796875 L 390.472656 409.796875 L 390.539062 409.800781 L 390.730469 409.800781 L 390.792969 409.804688 L 390.988281 409.804688 L 391.046875 409.808594 L 391.238281 409.808594 L 391.300781 409.8125 L 391.496094 409.8125 L 391.554688 409.816406 L 391.808594 409.816406 L 391.875 409.820312 L 393.140625 409.820312 C 415.226562 409.820312 434.4375 403.28125 448.183594 389.535156 C 448.207031 389.515625 448.230469 389.488281 448.253906 389.46875 L 448.277344 389.441406 L 448.324219 389.394531 L 448.347656 389.367188 L 448.40625 389.3125 L 448.488281 389.230469 L 448.511719 389.203125 L 448.65625 389.058594 L 448.722656 388.988281 L 448.746094 388.964844 L 448.789062 388.917969 L 448.863281 388.84375 L 448.890625 388.820312 L 448.953125 388.75 L 448.972656 388.734375 L 449.027344 388.679688 L 449.050781 388.652344 L 449.097656 388.605469 L 449.121094 388.578125 L 449.191406 388.507812 L 449.257812 388.4375 L 449.28125 388.410156 L 449.355469 388.335938 L 449.398438 388.289062 L 449.425781 388.261719 L 449.488281 388.195312 L 449.511719 388.167969 L 449.554688 388.121094 L 449.628906 388.046875 L 449.652344 388.019531 L 449.714844 387.949219 L 449.785156 387.878906 L 449.8125 387.847656 L 449.851562 387.804688 L 449.882812 387.773438 L 449.929688 387.71875 L 449.960938 387.6875 L 450.007812 387.632812 L 450.039062 387.605469 L 450.078125 387.558594 L 450.105469 387.527344 L 450.152344 387.480469 L 450.175781 387.453125 L 450.234375 387.386719 L 450.265625 387.355469 L 450.300781 387.316406 L 450.335938 387.28125 L 450.371094 387.242188 L 450.402344 387.207031 L 450.460938 387.140625 L 450.488281 387.109375 L 450.527344 387.066406 L 450.589844 386.996094 L 450.625 386.957031 L 450.65625 386.921875 L 450.714844 386.855469 L 450.746094 386.820312 L 450.78125 386.78125 L 450.8125 386.746094 L 450.84375 386.707031 L 450.878906 386.667969 L 450.925781 386.617188 L 450.96875 386.566406 L 451 386.535156 L 451.035156 386.496094 L 451.066406 386.457031 L 451.101562 386.421875 L 451.128906 386.386719 L 451.1875 386.316406 L 451.222656 386.28125 L 451.25 386.246094 L 451.285156 386.207031 L 451.316406 386.171875 L 451.347656 386.132812 L 451.40625 386.066406 L 451.429688 386.039062 L 451.46875 385.992188 L 451.5 385.957031 L 451.535156 385.917969 L 451.566406 385.878906 L 451.601562 385.835938 L 451.648438 385.78125 L 451.683594 385.738281 L 451.71875 385.699219 L 451.746094 385.667969 L 451.78125 385.625 L 451.816406 385.585938 L 451.84375 385.550781 L 451.898438 385.484375 L 451.933594 385.445312 L 451.960938 385.410156 L 451.996094 385.371094 L 452.023438 385.335938 L 452.058594 385.292969 C 452.070312 385.28125 452.082031 385.265625 452.09375 385.25 L 452.148438 385.1875 L 452.175781 385.152344 L 452.207031 385.113281 L 452.238281 385.078125 L 452.269531 385.039062 L 452.300781 385.003906 C 452.320312 384.976562 452.339844 384.953125 452.363281 384.925781 L 452.386719 384.898438 L 452.421875 384.855469 L 452.449219 384.824219 L 452.484375 384.78125 L 452.507812 384.75 C 452.535156 384.71875 452.558594 384.6875 452.582031 384.65625 L 452.597656 384.640625 L 452.632812 384.59375 L 452.660156 384.566406 L 452.691406 384.523438 L 452.71875 384.488281 C 452.761719 384.4375 452.804688 384.382812 452.847656 384.328125 L 452.863281 384.308594 L 452.90625 384.257812 L 452.921875 384.234375 L 453.054688 384.074219 L 453.074219 384.046875 L 453.109375 384 L 453.132812 383.972656 L 453.171875 383.921875 L 453.191406 383.902344 L 453.261719 383.808594 L 453.320312 383.738281 L 453.339844 383.710938 L 453.378906 383.660156 L 453.390625 383.640625 C 453.4375 383.585938 453.476562 383.53125 453.519531 383.476562 L 453.542969 383.445312 L 453.582031 383.398438 L 453.601562 383.371094 L 453.640625 383.324219 C 453.667969 383.285156 453.695312 383.25 453.726562 383.210938 L 453.746094 383.183594 L 453.785156 383.136719 L 453.804688 383.109375 L 453.84375 383.058594 L 453.851562 383.046875 C 453.878906 383.011719 453.90625 382.972656 453.933594 382.9375 L 453.945312 382.921875 L 453.988281 382.867188 L 454.003906 382.847656 L 454.042969 382.792969 L 454.054688 382.78125 C 454.097656 382.71875 454.144531 382.660156 454.191406 382.597656 L 454.203125 382.582031 L 454.242188 382.523438 L 454.257812 382.507812 L 454.386719 382.332031 L 454.402344 382.3125 L 454.441406 382.257812 L 454.453125 382.238281 L 454.585938 382.058594 L 454.597656 382.042969 L 454.636719 381.988281 L 454.652344 381.964844 L 454.691406 381.914062 L 454.699219 381.898438 L 454.785156 381.785156 L 454.792969 381.773438 L 454.832031 381.71875 L 454.847656 381.695312 L 454.886719 381.640625 L 454.898438 381.625 C 454.941406 381.5625 454.984375 381.507812 455.027344 381.445312 L 455.039062 381.425781 L 455.078125 381.371094 L 455.09375 381.351562 C 455.136719 381.289062 455.179688 381.230469 455.222656 381.167969 L 455.234375 381.152344 L 455.273438 381.09375 L 455.285156 381.078125 L 455.324219 381.019531 L 455.328125 381.019531 L 455.417969 380.886719 L 455.421875 380.878906 L 455.464844 380.820312 L 455.476562 380.808594 L 455.515625 380.746094 L 455.523438 380.738281 C 455.566406 380.675781 455.613281 380.605469 455.65625 380.542969 L 455.703125 380.472656 L 455.714844 380.457031 C 455.757812 380.394531 455.800781 380.332031 455.84375 380.269531 L 455.851562 380.253906 L 455.890625 380.195312 L 455.90625 380.175781 C 455.964844 380.089844 456.019531 380.003906 456.078125 379.917969 L 456.089844 379.902344 L 456.265625 379.636719 L 456.273438 379.625 L 456.316406 379.558594 C 456.363281 379.492188 456.40625 379.421875 456.449219 379.355469 L 456.457031 379.34375 L 456.5 379.277344 C 456.546875 379.210938 456.589844 379.140625 456.632812 379.074219 L 456.636719 379.0625 L 456.679688 379 L 456.683594 378.988281 C 456.746094 378.898438 456.804688 378.804688 456.863281 378.710938 C 456.925781 378.617188 456.984375 378.523438 457.042969 378.429688 C 457.117188 378.308594 457.191406 378.191406 457.265625 378.074219 L 457.269531 378.070312 C 457.328125 377.976562 457.382812 377.882812 457.441406 377.785156 L 457.445312 377.785156 C 457.503906 377.6875 457.558594 377.597656 457.617188 377.5 L 457.617188 377.496094 C 457.675781 377.398438 457.734375 377.304688 457.789062 377.210938 C 457.863281 377.089844 457.933594 376.96875 458.003906 376.847656 L 458.007812 376.847656 C 458.0625 376.75 458.121094 376.65625 458.175781 376.558594 L 458.179688 376.558594 C 458.25 376.4375 458.316406 376.316406 458.386719 376.195312 L 458.390625 376.191406 C 458.445312 376.09375 458.5 376 458.554688 375.902344 C 458.609375 375.804688 458.664062 375.707031 458.71875 375.609375 C 464.570312 364.769531 467.847656 352.734375 468.308594 340.425781 C 468.339844 339.890625 468.363281 339.359375 468.386719 338.820312 C 468.425781 337.871094 468.449219 336.917969 468.460938 335.957031 L 468.460938 335.953125 C 468.464844 335.824219 468.464844 335.699219 468.464844 335.570312 C 468.46875 335.28125 468.46875 334.996094 468.46875 334.707031 L 468.46875 334.316406 C 468.46875 334.1875 468.46875 334.0625 468.46875 333.933594 L 468.46875 333.929688 C 468.46875 333.800781 468.46875 333.671875 468.464844 333.542969 C 468.464844 333.507812 468.464844 333.480469 468.464844 333.445312 C 468.464844 333.316406 468.460938 333.191406 468.460938 333.0625 L 468.460938 333.054688 C 468.457031 332.925781 468.457031 332.800781 468.453125 332.671875 L 468.453125 332.667969 C 468.453125 332.503906 468.449219 332.34375 468.445312 332.183594 L 468.445312 332.179688 L 468.4375 331.796875 L 468.4375 331.785156 C 468.433594 331.65625 468.429688 331.535156 468.425781 331.40625 L 468.425781 331.394531 C 468.421875 331.269531 468.417969 331.140625 468.414062 331.015625 L 468.414062 331.003906 C 468.410156 330.875 468.40625 330.753906 468.402344 330.621094 L 468.402344 330.617188 L 468.398438 330.527344 L 468.398438 330.511719 C 468.394531 330.382812 468.390625 330.257812 468.382812 330.132812 L 468.382812 330.121094 C 468.382812 330.089844 468.382812 330.066406 468.378906 330.03125 L 468.378906 330.019531 L 468.367188 329.75 L 468.367188 329.722656 C 468.367188 329.699219 468.367188 329.667969 468.363281 329.644531 L 468.363281 329.617188 C 468.359375 329.53125 468.355469 329.441406 468.351562 329.355469 L 468.347656 329.335938 C 468.347656 329.308594 468.347656 329.28125 468.34375 329.253906 L 468.34375 329.226562 C 468.339844 329.136719 468.335938 329.050781 468.332031 328.960938 L 468.332031 328.941406 C 468.328125 328.914062 468.328125 328.890625 468.328125 328.863281 L 468.324219 328.832031 C 468.320312 328.710938 468.3125 328.589844 468.304688 328.46875 L 468.304688 328.441406 L 468.300781 328.355469 L 468.300781 328.351562 C 468.296875 328.257812 468.289062 328.164062 468.285156 328.070312 L 468.285156 328.050781 L 468.28125 327.964844 L 468.277344 327.949219 L 468.261719 327.671875 L 468.261719 327.660156 C 468.261719 327.628906 468.257812 327.601562 468.257812 327.574219 L 468.253906 327.550781 L 468.238281 327.277344 L 468.238281 327.265625 L 468.234375 327.175781 L 468.234375 327.160156 L 468.207031 326.789062 L 468.207031 326.757812 L 468.203125 326.679688 L 468.199219 326.652344 C 468.195312 326.566406 468.1875 326.476562 468.179688 326.386719 L 468.179688 326.367188 C 468.175781 326.339844 468.175781 326.3125 468.171875 326.28125 L 468.171875 326.261719 C 468.167969 326.171875 468.160156 326.074219 468.152344 325.984375 L 468.152344 325.972656 L 468.144531 325.886719 L 468.144531 325.863281 L 468.136719 325.777344 L 468.136719 325.773438 C 468.132812 325.710938 468.128906 325.644531 468.125 325.585938 L 468.121094 325.578125 L 468.117188 325.496094 L 468.113281 325.464844 L 468.109375 325.386719 L 468.105469 325.359375 C 468.097656 325.269531 468.09375 325.179688 468.085938 325.09375 L 468.082031 325.070312 C 468.082031 325.042969 468.078125 325.011719 468.074219 324.984375 L 468.074219 324.96875 C 468.066406 324.878906 468.058594 324.789062 468.050781 324.699219 L 468.050781 324.671875 L 468.042969 324.589844 L 468.042969 324.566406 C 468.035156 324.476562 468.027344 324.382812 468.019531 324.289062 L 468.015625 324.277344 L 468.007812 324.191406 L 468.007812 324.167969 L 468 324.082031 L 468 324.070312 L 467.972656 323.792969 L 467.972656 323.769531 L 467.964844 323.6875 L 467.960938 323.660156 L 467.9375 323.398438 L 467.933594 323.367188 L 467.929688 323.292969 L 467.925781 323.253906 C 467.914062 323.167969 467.90625 323.082031 467.898438 322.992188 L 467.898438 322.972656 L 467.890625 322.890625 L 467.886719 322.859375 C 467.882812 322.832031 467.882812 322.804688 467.878906 322.777344 L 467.875 322.765625 C 467.867188 322.671875 467.859375 322.582031 467.847656 322.488281 L 467.84375 322.460938 L 467.835938 322.378906 L 467.835938 322.359375 C 467.828125 322.269531 467.816406 322.179688 467.808594 322.085938 L 467.804688 322.0625 C 467.800781 322.035156 467.796875 322.007812 467.796875 321.976562 L 467.792969 321.960938 C 467.785156 321.871094 467.773438 321.78125 467.765625 321.695312 L 467.761719 321.660156 L 467.753906 321.585938 L 467.742188 321.46875 L 467.742188 321.460938 C 467.734375 321.402344 467.726562 321.335938 467.71875 321.277344 L 467.71875 321.261719 L 467.707031 321.179688 L 467.707031 321.148438 C 467.703125 321.121094 467.699219 321.097656 467.695312 321.066406 L 467.695312 321.046875 L 467.671875 320.863281 L 467.671875 320.859375 L 467.664062 320.777344 L 467.660156 320.75 C 467.65625 320.726562 467.652344 320.691406 467.648438 320.667969 L 467.648438 320.640625 L 467.617188 320.367188 L 467.613281 320.347656 L 467.601562 320.261719 L 467.597656 320.234375 C 467.585938 320.140625 467.578125 320.058594 467.566406 319.964844 L 467.566406 319.945312 L 467.554688 319.855469 L 467.550781 319.835938 C 467.535156 319.710938 467.519531 319.578125 467.503906 319.453125 L 467.5 319.429688 L 467.488281 319.34375 L 467.488281 319.324219 L 467.453125 319.050781 L 467.4375 318.941406 L 467.433594 318.910156 C 467.421875 318.820312 467.414062 318.730469 467.402344 318.644531 L 467.398438 318.621094 L 467.386719 318.535156 L 467.382812 318.507812 L 467.371094 318.421875 L 467.371094 318.417969 C 467.363281 318.355469 467.355469 318.292969 467.34375 318.230469 L 467.34375 318.21875 L 467.332031 318.132812 L 467.328125 318.105469 L 467.316406 318.019531 L 467.3125 318 L 467.273438 317.722656 L 467.273438 317.703125 L 467.257812 317.613281 L 467.257812 317.597656 C 467.242188 317.503906 467.230469 317.410156 467.21875 317.316406 L 467.214844 317.296875 L 467.203125 317.210938 L 467.199219 317.1875 L 467.167969 316.894531 L 467.167969 316.875 C 467.164062 316.84375 467.160156 316.820312 467.15625 316.789062 L 467.152344 316.757812 L 467.136719 316.675781 L 467.136719 316.667969 C 467.121094 316.566406 467.109375 316.480469 467.097656 316.382812 L 467.09375 316.351562 L 467.078125 316.265625 L 467.074219 316.25 C 467.0625 316.15625 467.050781 316.070312 467.035156 315.972656 L 467.03125 315.945312 L 467.019531 315.859375 L 467.015625 315.839844 L 466.972656 315.558594 L 466.96875 315.539062 C 466.964844 315.511719 466.960938 315.480469 466.957031 315.453125 L 466.953125 315.429688 C 466.9375 315.335938 466.925781 315.246094 466.910156 315.152344 L 466.90625 315.128906 L 466.894531 315.042969 L 466.890625 315.019531 C 466.882812 314.988281 466.878906 314.960938 466.875 314.929688 L 466.871094 314.917969 C 466.859375 314.824219 466.84375 314.730469 466.828125 314.636719 L 466.824219 314.609375 C 466.820312 314.582031 466.816406 314.550781 466.8125 314.523438 L 466.808594 314.503906 C 466.792969 314.40625 466.777344 314.320312 466.761719 314.226562 L 466.757812 314.199219 C 466.753906 314.175781 466.746094 314.140625 466.742188 314.113281 L 466.738281 314.089844 C 466.726562 313.996094 466.710938 313.902344 466.695312 313.808594 L 466.691406 313.792969 L 466.675781 313.703125 L 466.671875 313.679688 L 466.660156 313.589844 L 466.660156 313.582031 C 466.644531 313.488281 466.628906 313.382812 466.609375 313.289062 L 466.605469 313.269531 C 466.601562 313.242188 466.597656 313.210938 466.59375 313.179688 L 466.589844 313.167969 L 466.539062 312.871094 L 466.539062 312.863281 C 466.53125 312.828125 466.527344 312.800781 466.523438 312.769531 L 466.519531 312.75 L 466.46875 312.453125 L 466.464844 312.453125 C 466.460938 312.417969 466.453125 312.390625 466.449219 312.355469 L 466.445312 312.339844 C 466.425781 312.210938 466.398438 312.074219 466.375 311.941406 L 466.375 311.925781 L 466.355469 311.832031 L 466.355469 311.828125 C 466.335938 311.726562 466.320312 311.628906 466.300781 311.523438 L 466.300781 311.515625 L 466.28125 311.417969 L 466.28125 311.410156 C 466.253906 311.273438 466.230469 311.140625 466.207031 311.003906 L 466.203125 310.996094 C 466.179688 310.855469 466.152344 310.722656 466.128906 310.585938 L 466.128906 310.582031 C 466.101562 310.441406 466.078125 310.3125 466.050781 310.175781 L 466.046875 310.164062 L 465.96875 309.753906 L 465.96875 309.75 C 465.933594 309.578125 465.902344 309.40625 465.867188 309.230469 C 465.839844 309.09375 465.8125 308.953125 465.785156 308.816406 L 465.785156 308.8125 C 465.691406 308.359375 465.601562 307.910156 465.507812 307.457031 C 462.410156 293.195312 457.683594 279.335938 451.414062 266.15625 C 446.585938 255.886719 436.257812 249.332031 424.90625 249.339844 Z M 424.910156 249.339844 " style=" stroke:none;fill-rule:nonzero;fill:rgb(0%,52.941176%,19.607843%);fill-opacity:1;" />
<path d="M 468.460938 29.273438 L 556.28125 117.089844 L 409.914062 322 C 329.082031 322 263.554688 256.46875 263.554688 175.636719 Z M 468.460938 29.273438 " style=" stroke:none;fill-rule:nonzero;fill:rgb(0%,52.941176%,19.607843%);fill-opacity:1;" />
<path d="M 389.277344 242.4375 L 431.394531 210.21875 C 440.34375 202.671875 453.582031 203.230469 461.863281 211.507812 C 470.136719 219.785156 470.699219 233.015625 463.160156 241.964844 L 433.671875 280.941406 C 425.128906 292.332031 409.664062 295.980469 396.933594 289.613281 C 382.382812 282.339844 376.480469 264.644531 383.757812 250.09375 C 385.175781 247.261719 387.039062 244.675781 389.277344 242.4375 Z M 389.277344 242.4375 " style=" stroke:none;fill-rule:nonzero;fill:rgb(0%,38.431373%,21.176471%);fill-opacity:1;" />
<path d="M 393.554688 12.910156 C 366.078125 40.382812 360.460938 126.183594 409.917969 175.636719 C 459.371094 225.089844 545.167969 219.476562 572.644531 192 Z M 393.554688 12.910156 " style=" stroke:none;fill-rule:nonzero;fill:rgb(0%,52.941176%,19.607843%);fill-opacity:1;" />
<path d="M 532.839844 52.710938 C 483.386719 3.257812 421.023438 -14.5625 393.550781 12.914062 C 366.074219 40.386719 383.894531 102.75 433.347656 152.203125 C 482.800781 201.65625 545.164062 219.476562 572.636719 192 C 600.113281 164.527344 582.296875 102.164062 532.839844 52.710938 Z M 532.839844 52.710938 " style=" stroke:none;fill-rule:nonzero;fill:rgb(7.843137%,63.137255%,25.882353%);fill-opacity:1;" />
<path d="M 504.414062 51.863281 C 483.21875 30.671875 456.492188 23.035156 444.71875 34.808594 C 432.941406 46.582031 440.578125 73.308594 461.773438 94.503906 C 482.96875 115.699219 509.695312 123.335938 521.46875 111.5625 C 533.246094 99.785156 525.609375 73.058594 504.414062 51.863281 Z M 504.414062 51.863281 " style=" stroke:none;fill-rule:nonzero;fill:rgb(29.803922%,77.647059%,43.137255%);fill-opacity:1;" />
<path d="M 344.347656 223.601562 L 367.761719 204.332031 C 380.210938 194.996094 384.199219 178.089844 377.242188 164.171875 C 369.289062 148.265625 349.945312 141.816406 334.042969 149.769531 C 332.3125 150.632812 330.667969 151.652344 329.121094 152.8125 L 305.707031 172.082031 C 293.257812 181.421875 289.269531 198.324219 296.226562 212.246094 C 304.179688 228.148438 323.523438 234.597656 339.429688 226.644531 C 341.15625 225.78125 342.800781 224.761719 344.347656 223.601562 Z M 344.347656 223.601562 " style=" stroke:none;fill-rule:nonzero;fill:rgb(29.803922%,77.647059%,43.137255%);fill-opacity:1;" />
<path d="M 35.433594 140.300781 L 140.398438 35.335938 C 148.480469 27.25 161.585938 27.25 169.671875 35.335938 C 177.753906 43.417969 177.753906 56.523438 169.671875 64.609375 L 64.707031 169.574219 C 56.621094 177.65625 43.515625 177.65625 35.433594 169.574219 C 27.351562 161.488281 27.351562 148.382812 35.433594 140.300781 Z M 35.433594 140.300781 " style=" stroke:none;fill-rule:nonzero;fill:rgb(93.72549%,94.901961%,100%);fill-opacity:1;" />
</g>
</svg>